<svg width="160" height="162" viewBox="0 0 160 162" fill="none" xmlns="http://www.w3.org/2000/svg">
<path d="M117.541 26.3617C117.139 26.3617 116.803 26.2268 116.532 25.9569C116.259 25.6862 116.123 25.351 116.123 24.9514V20.7208C116.123 20.3212 116.259 19.986 116.532 19.7153C116.803 19.4455 117.139 19.3105 117.541 19.3105H121.796C122.198 19.3105 122.535 19.4455 122.807 19.7153C123.079 19.986 123.214 20.3212 123.214 20.7208C123.214 21.1203 123.079 21.455 122.807 21.7249C122.535 21.9956 122.198 22.131 121.796 22.131H118.96V24.9514C118.96 25.351 118.824 25.6862 118.553 25.9569C118.28 26.2268 117.943 26.3617 117.541 26.3617ZM143.07 26.3617C142.669 26.3617 142.332 26.2268 142.061 25.9569C141.788 25.6862 141.652 25.351 141.652 24.9514V22.131H138.816C138.414 22.131 138.077 21.9956 137.806 21.7249C137.533 21.455 137.397 21.1203 137.397 20.7208C137.397 20.3212 137.533 19.986 137.806 19.7153C138.077 19.4455 138.414 19.3105 138.816 19.3105H143.07C143.472 19.3105 143.809 19.4455 144.08 19.7153C144.353 19.986 144.489 20.3212 144.489 20.7208V24.9514C144.489 25.351 144.353 25.6862 144.08 25.9569C143.809 26.2268 143.472 26.3617 143.07 26.3617ZM117.541 50.3355C117.139 50.3355 116.803 50.2001 116.532 49.9293C116.259 49.6595 116.123 49.3248 116.123 48.9253V44.6946C116.123 44.295 116.259 43.9603 116.532 43.6905C116.803 43.4197 117.139 43.2844 117.541 43.2844C117.943 43.2844 118.28 43.4197 118.553 43.6905C118.824 43.9603 118.96 44.295 118.96 44.6946V47.515H121.796C122.198 47.515 122.535 47.6504 122.807 47.9212C123.079 48.191 123.214 48.5257 123.214 48.9253C123.214 49.3248 123.079 49.6595 122.807 49.9293C122.535 50.2001 122.198 50.3355 121.796 50.3355H117.541ZM138.816 50.3355C138.414 50.3355 138.077 50.2001 137.806 49.9293C137.533 49.6595 137.397 49.3248 137.397 48.9253C137.397 48.5257 137.533 48.191 137.806 47.9212C138.077 47.6504 138.414 47.515 138.816 47.515H141.652V44.6946C141.652 44.295 141.788 43.9603 142.061 43.6905C142.332 43.4197 142.669 43.2844 143.07 43.2844C143.472 43.2844 143.809 43.4197 144.08 43.6905C144.353 43.9603 144.489 44.295 144.489 44.6946V48.9253C144.489 49.3248 144.353 49.6595 144.08 49.9293C143.809 50.2001 143.472 50.3355 143.07 50.3355H138.816ZM123.214 46.1048C122.434 46.1048 121.767 45.8289 121.212 45.277C120.656 44.7242 120.378 44.06 120.378 43.2844V26.3617C120.378 25.586 120.656 24.9223 121.212 24.3704C121.767 23.8176 122.434 23.5412 123.214 23.5412H137.397C138.177 23.5412 138.845 23.8176 139.401 24.3704C139.956 24.9223 140.234 25.586 140.234 26.3617V43.2844C140.234 44.06 139.956 44.7242 139.401 45.277C138.845 45.8289 138.177 46.1048 137.397 46.1048H123.214ZM127.469 32.0026H133.142C133.544 32.0026 133.881 31.8672 134.154 31.5964C134.425 31.3266 134.561 30.9919 134.561 30.5923C134.561 30.1928 134.425 29.8576 134.154 29.5868C133.881 29.317 133.544 29.1821 133.142 29.1821H127.469C127.067 29.1821 126.731 29.317 126.459 29.5868C126.187 29.8576 126.051 30.1928 126.051 30.5923C126.051 30.9919 126.187 31.3266 126.459 31.5964C126.731 31.8672 127.067 32.0026 127.469 32.0026ZM127.469 36.2332H133.142C133.544 36.2332 133.881 36.0979 134.154 35.8271C134.425 35.5573 134.561 35.2226 134.561 34.823C134.561 34.4234 134.425 34.0883 134.154 33.8175C133.881 33.5477 133.544 33.4128 133.142 33.4128H127.469C127.067 33.4128 126.731 33.5477 126.459 33.8175C126.187 34.0883 126.051 34.4234 126.051 34.823C126.051 35.2226 126.187 35.5573 126.459 35.8271C126.731 36.0979 127.067 36.2332 127.469 36.2332ZM127.469 40.4639H133.142C133.544 40.4639 133.881 40.3285 134.154 40.0578C134.425 39.7879 134.561 39.4532 134.561 39.0537C134.561 38.6541 134.425 38.319 134.154 38.0482C133.881 37.7784 133.544 37.6435 133.142 37.6435H127.469C127.067 37.6435 126.731 37.7784 126.459 38.0482C126.187 38.319 126.051 38.6541 126.051 39.0537C126.051 39.4532 126.187 39.7879 126.459 40.0578C126.731 40.3285 127.067 40.4639 127.469 40.4639Z" fill="white"/>
<path d="M72.271 52.8426C78.3277 52.8426 84.2484 54.6386 89.2844 58.0035C94.3203 61.3685 98.2454 66.1512 100.563 71.7468C102.881 77.3425 103.487 83.4998 102.306 89.4402C101.124 95.3805 98.2077 100.837 93.9249 105.12C89.6422 109.403 84.1856 112.319 78.2453 113.501C72.305 114.682 66.1476 114.076 60.552 111.758C54.9563 109.44 50.1736 105.515 46.8087 100.479C43.4437 95.4433 41.6477 89.5226 41.6477 83.4659C41.6477 75.3441 44.8741 67.5549 50.6171 61.8119C56.36 56.069 64.1492 52.8426 72.271 52.8426ZM137.241 72.4067C135.785 72.6504 134.485 73.4626 133.627 74.6647C132.77 75.8668 132.425 77.3603 132.668 78.8167C133.234 82.193 133.518 85.6104 133.518 89.0337C133.531 104.027 128.02 118.499 118.039 129.686C113.989 123.817 108.847 118.781 102.894 114.855C102.386 114.518 101.781 114.357 101.172 114.397C100.564 114.437 99.9853 114.676 99.5257 115.077C91.9609 121.623 82.2919 125.225 72.2884 125.225C62.2849 125.225 52.6159 121.623 45.0511 115.077C44.5888 114.668 44.0036 114.424 43.3875 114.384C42.7714 114.344 42.1594 114.509 41.6477 114.855C35.6857 118.777 30.5364 123.813 26.4822 129.686C18.6493 120.859 13.5332 109.958 11.7492 98.2924C9.96522 86.6269 11.5894 74.6945 16.4263 63.9303C21.2633 53.1661 29.1071 44.0284 39.0142 37.6165C48.9213 31.2045 60.4699 27.7912 72.271 27.7872C75.6943 27.7866 79.1118 28.0706 82.488 28.6363C83.9378 28.865 85.4193 28.5121 86.6103 27.6542C87.8012 26.7963 88.6052 25.5028 88.8474 24.0552C89.0896 22.6076 88.7503 21.1229 87.9035 19.924C87.0567 18.7252 85.7708 17.9093 84.3254 17.6537C69.2048 15.1099 53.6669 17.4375 39.9553 24.3001C26.2437 31.1628 15.0679 42.2055 8.04136 55.8339C1.01485 69.4623 -1.4987 84.9711 0.863625 100.121C3.22595 115.271 10.3419 129.279 21.184 140.121C32.0262 150.963 46.0335 158.079 61.1836 160.441C76.3336 162.803 91.8424 160.29 105.471 153.263C119.099 146.237 130.142 135.061 137.005 121.349C143.867 107.638 146.195 92.0999 143.651 76.9793C143.407 75.5229 142.595 74.223 141.393 73.3655C140.191 72.508 138.697 72.1631 137.241 72.4067Z" fill="white"/>
<path d="M108.365 36.8178H105.262C104.851 36.8178 104.456 36.6543 104.165 36.3634C103.874 36.0725 103.711 35.6779 103.711 35.2665C103.711 34.8551 103.874 34.4605 104.165 34.1696C104.456 33.8787 104.851 33.7153 105.262 33.7153H108.365V30.6128C108.365 30.2014 108.528 29.8068 108.819 29.5159C109.11 29.225 109.505 29.0615 109.916 29.0615C110.327 29.0615 110.722 29.225 111.013 29.5159C111.304 29.8068 111.467 30.2014 111.467 30.6128V33.7153H114.57C114.981 33.7153 115.376 33.8787 115.667 34.1696C115.957 34.4605 116.121 34.8551 116.121 35.2665C116.121 35.6779 115.957 36.0725 115.667 36.3634C115.376 36.6543 114.981 36.8178 114.57 36.8178H111.467V39.9202C111.467 40.3317 111.304 40.7262 111.013 41.0171C110.722 41.3081 110.327 41.4715 109.916 41.4715C109.505 41.4715 109.11 41.3081 108.819 41.0171C108.528 40.7262 108.365 40.3317 108.365 39.9202V36.8178Z" fill="white"/>
<path d="M125.65 69.3934C106.679 69.3934 91.3008 54.0153 91.3008 35.0443C91.3008 16.0734 106.679 0.695312 125.65 0.695312C144.621 0.695312 159.999 16.0734 159.999 35.0443C159.999 54.0153 144.621 69.3934 125.65 69.3934ZM125.65 62.5236C132.938 62.5236 139.927 59.6284 145.081 54.4751C150.234 49.3217 153.129 42.3323 153.129 35.0443C153.129 27.7564 150.234 20.767 145.081 15.6136C139.927 10.4602 132.938 7.56512 125.65 7.56512C118.362 7.56512 111.372 10.4602 106.219 15.6136C101.066 20.767 98.1706 27.7564 98.1706 35.0443C98.1706 42.3323 101.066 49.3217 106.219 54.4751C111.372 59.6284 118.362 62.5236 125.65 62.5236Z" fill="white"/>
</svg>
