<svg width="251" height="49" viewBox="0 0 251 49" fill="none" xmlns="http://www.w3.org/2000/svg">
<path d="M3.13441 0.960777L31.7222 1.33124C31.764 1.33178 31.7854 1.38155 31.7571 1.41227L10.1451 24.8364C10.1266 24.8565 10.0949 24.8572 10.0755 24.8378L6.02325 20.7943C6.00551 20.7766 6.00426 20.7483 6.02038 20.7291L17.5223 7.03076C17.5504 6.99727 17.5231 6.94665 17.4797 6.95174L11.2548 7.68249C11.2418 7.68402 11.2288 7.68021 11.2187 7.67194L3.10325 1.04647C3.06783 1.01755 3.0887 0.960184 3.13441 0.960777Z" fill="black"/>
<path d="M0.0339455 44.2638L34.7437 3.29832C34.7725 3.26441 34.8279 3.28404 34.8288 3.32848L35.5728 37.1029C35.5737 37.1436 35.527 37.167 35.4949 37.1421L28.8531 31.9875C28.8414 31.9784 28.8345 31.9643 28.8345 31.9494V20.1482C28.8345 20.1032 28.7782 20.0827 28.7492 20.1171L5.27132 48.0064C5.25511 48.0256 5.22684 48.0292 5.20635 48.0146L0.0427599 44.3343C0.0197458 44.3179 0.0156759 44.2853 0.0339455 44.2638Z" fill="#F9C730"/>
<path d="M57.9671 30.4549H65.9348V34.2918H53.1172V10.1641H57.9671V30.4549Z" fill="#15233C"/>
<path d="M86.8581 24.302C86.8581 24.9933 86.8119 25.6155 86.7195 26.1686H72.6895C72.8049 27.5512 73.2899 28.6343 74.1444 29.4179C74.9989 30.2014 76.0498 30.5931 77.2969 30.5931C79.0983 30.5931 80.38 29.8211 81.1422 28.2772H86.3731C85.8188 30.1207 84.7565 31.6417 83.186 32.84C81.6156 34.0153 79.6872 34.6029 77.4008 34.6029C75.5532 34.6029 73.8904 34.1996 72.4123 33.3931C70.9574 32.5635 69.8142 31.3997 68.9828 29.9018C68.1744 28.4039 67.7703 26.6756 67.7703 24.7168C67.7703 22.7349 68.1744 20.995 68.9828 19.4971C69.7911 17.9992 70.9227 16.847 72.3777 16.0404C73.8327 15.2339 75.507 14.8306 77.4008 14.8306C79.2253 14.8306 80.8535 15.2224 82.2853 16.0059C83.7403 16.7894 84.8604 17.9071 85.6456 19.3589C86.454 20.7876 86.8581 22.4353 86.8581 24.302ZM81.835 22.9193C81.8119 21.6749 81.3616 20.6839 80.484 19.9465C79.6064 19.186 78.5324 18.8058 77.2622 18.8058C76.0613 18.8058 75.0451 19.1745 74.2137 19.9119C73.4054 20.6263 72.9089 21.6288 72.7241 22.9193H81.835Z" fill="#15233C"/>
<path d="M97.9155 14.8306C99.3473 14.8306 100.606 15.1187 101.691 15.6948C102.777 16.2478 103.631 16.9738 104.255 17.8725V15.1417H109.14V34.4301C109.14 36.2045 108.782 37.7831 108.066 39.1658C107.35 40.5715 106.276 41.6776 104.844 42.4842C103.412 43.3138 101.68 43.7286 99.6476 43.7286C96.9224 43.7286 94.6822 43.0949 92.927 41.8274C91.1949 40.5599 90.2134 38.8316 89.9824 36.6424H94.7977C95.0517 37.5181 95.5944 38.2094 96.4258 38.7164C97.2804 39.2464 98.3081 39.5114 99.509 39.5114C100.918 39.5114 102.061 39.0851 102.939 38.2324C103.816 37.4028 104.255 36.1354 104.255 34.4301V31.4573C103.631 32.3561 102.765 33.105 101.657 33.7042C100.571 34.3033 99.3242 34.6029 97.9155 34.6029C96.2988 34.6029 94.8208 34.1881 93.4813 33.3585C92.1418 32.5289 91.0794 31.3651 90.2942 29.8672C89.5321 28.3463 89.151 26.6064 89.151 24.6476C89.151 22.7119 89.5321 20.995 90.2942 19.4971C91.0794 17.9992 92.1302 16.847 93.4466 16.0404C94.7861 15.2339 96.2757 14.8306 97.9155 14.8306ZM104.255 24.7168C104.255 23.5415 104.024 22.539 103.562 21.7094C103.1 20.8568 102.477 20.2115 101.691 19.7737C100.906 19.3128 100.063 19.0823 99.1626 19.0823C98.2619 19.0823 97.4305 19.3013 96.6683 19.7391C95.9062 20.177 95.2826 20.8222 94.7977 21.6749C94.3358 22.5045 94.1048 23.4954 94.1048 24.6476C94.1048 25.7999 94.3358 26.8138 94.7977 27.6895C95.2826 28.5422 95.9062 29.1989 96.6683 29.6598C97.4536 30.1207 98.285 30.3512 99.1626 30.3512C100.063 30.3512 100.906 30.1322 101.691 29.6944C102.477 29.2335 103.1 28.5883 103.562 27.7586C104.024 26.906 104.255 25.892 104.255 24.7168Z" fill="#15233C"/>
<path d="M112.629 24.6476C112.629 22.7119 113.01 20.995 113.772 19.4971C114.558 17.9992 115.608 16.847 116.925 16.0404C118.264 15.2339 119.754 14.8306 121.394 14.8306C122.826 14.8306 124.073 15.1187 125.135 15.6948C126.22 16.2709 127.087 16.9968 127.733 17.8725V15.1417H132.618V34.2918H127.733V31.4919C127.11 32.3906 126.244 33.1396 125.135 33.7387C124.05 34.3148 122.791 34.6029 121.359 34.6029C119.742 34.6029 118.264 34.1881 116.925 33.3585C115.608 32.5289 114.558 31.3651 113.772 29.8672C113.01 28.3463 112.629 26.6064 112.629 24.6476ZM127.733 24.7168C127.733 23.5415 127.502 22.539 127.04 21.7094C126.578 20.8568 125.955 20.2115 125.17 19.7737C124.384 19.3128 123.541 19.0823 122.641 19.0823C121.74 19.0823 120.909 19.3013 120.147 19.7391C119.384 20.177 118.761 20.8222 118.276 21.6749C117.814 22.5045 117.583 23.4954 117.583 24.6476C117.583 25.7999 117.814 26.8138 118.276 27.6895C118.761 28.5422 119.384 29.1989 120.147 29.6598C120.932 30.1207 121.763 30.3512 122.641 30.3512C123.541 30.3512 124.384 30.1322 125.17 29.6944C125.955 29.2335 126.578 28.5883 127.04 27.7586C127.502 26.906 127.733 25.892 127.733 24.7168Z" fill="#15233C"/>
<path d="M136.107 24.7168C136.107 22.7349 136.512 21.0066 137.32 19.5317C138.128 18.0338 139.248 16.8816 140.68 16.075C142.112 15.2454 143.752 14.8306 145.599 14.8306C147.978 14.8306 149.941 15.4298 151.488 16.6281C153.059 17.8034 154.11 19.4626 154.641 21.6057H149.41C149.133 20.7761 148.659 20.1309 147.99 19.67C147.343 19.186 146.535 18.9441 145.565 18.9441C144.179 18.9441 143.082 19.4511 142.274 20.465C141.465 21.4559 141.061 22.8732 141.061 24.7168C141.061 26.5373 141.465 27.9545 142.274 28.9685C143.082 29.9594 144.179 30.4549 145.565 30.4549C147.528 30.4549 148.809 29.5792 149.41 27.8278H154.641C154.11 29.9018 153.059 31.5495 151.488 32.7709C149.918 33.9922 147.955 34.6029 145.599 34.6029C143.752 34.6029 142.112 34.1996 140.68 33.3931C139.248 32.5635 138.128 31.4112 137.32 29.9364C136.512 28.4385 136.107 26.6986 136.107 24.7168Z" fill="#15233C"/>
<path d="M176.554 15.1417L164.672 43.3484H159.51L163.667 33.8079L155.977 15.1417H161.416L166.369 28.5191L171.393 15.1417H176.554Z" fill="#15233C"/>
<path d="M201.072 34.2918L192.273 23.5415V34.2918H187.423V10.1641H192.273V20.9835L201.072 10.1641H206.927L196.95 22.1242L207.204 34.2918H201.072Z" fill="#15233C"/>
<path d="M228.235 24.302C228.235 24.9933 228.188 25.6155 228.096 26.1686H214.066C214.181 27.5512 214.666 28.6343 215.521 29.4179C216.376 30.2014 217.426 30.5931 218.673 30.5931C220.475 30.5931 221.757 29.8211 222.519 28.2772H227.75C227.195 30.1207 226.133 31.6417 224.563 32.84C222.992 34.0153 221.064 34.6029 218.777 34.6029C216.93 34.6029 215.267 34.1996 213.789 33.3931C212.334 32.5635 211.191 31.3997 210.359 29.9018C209.551 28.4039 209.147 26.6756 209.147 24.7168C209.147 22.7349 209.551 20.995 210.359 19.4971C211.168 17.9992 212.299 16.847 213.754 16.0404C215.209 15.2339 216.884 14.8306 218.777 14.8306C220.602 14.8306 222.23 15.2224 223.662 16.0059C225.117 16.7894 226.237 17.9071 227.022 19.3589C227.83 20.7876 228.235 22.4353 228.235 24.302ZM223.212 22.9193C223.188 21.6749 222.738 20.6839 221.86 19.9465C220.983 19.186 219.909 18.8058 218.639 18.8058C217.438 18.8058 216.422 19.1745 215.59 19.9119C214.782 20.6263 214.285 21.6288 214.101 22.9193H223.212Z" fill="#15233C"/>
<path d="M250.135 15.1417L238.253 43.3484H233.091L237.248 33.8079L229.558 15.1417H234.996L239.95 28.5191L244.973 15.1417H250.135Z" fill="#15233C"/>
</svg>
