<svg width="160" height="162" viewBox="0 0 160 162" fill="none" xmlns="http://www.w3.org/2000/svg">
<mask id="mask0_1544_13278" style="mask-type:luminance" maskUnits="userSpaceOnUse" x="107" y="19" width="40" height="32">
<path fill-rule="evenodd" clip-rule="evenodd" d="M109.031 35.2661L113.463 30.834L122.328 39.6983L140.056 21.9697L144.488 26.4019L122.328 48.5625L109.031 35.2661Z" fill="white" stroke="white" stroke-width="4" stroke-linecap="round" stroke-linejoin="round"/>
</mask>
<g mask="url(#mask0_1544_13278)">
<path d="M105.486 13.9922H148.035V56.5407H105.486V13.9922Z" fill="white"/>
</g>
<path d="M72.271 52.8426C78.3277 52.8426 84.2484 54.6386 89.2844 58.0035C94.3203 61.3685 98.2454 66.1512 100.563 71.7468C102.881 77.3425 103.487 83.4998 102.306 89.4402C101.124 95.3805 98.2077 100.837 93.9249 105.12C89.6422 109.403 84.1856 112.319 78.2453 113.501C72.305 114.682 66.1477 114.076 60.552 111.758C54.9563 109.44 50.1736 105.515 46.8087 100.479C43.4437 95.4433 41.6477 89.5226 41.6477 83.4659C41.6477 75.3441 44.8741 67.5549 50.6171 61.8119C56.3601 56.069 64.1492 52.8426 72.271 52.8426ZM137.241 72.4067C135.785 72.6504 134.485 73.4626 133.627 74.6647C132.77 75.8668 132.425 77.3603 132.668 78.8167C133.234 82.193 133.518 85.6104 133.518 89.0337C133.531 104.027 128.02 118.499 118.039 129.686C113.989 123.817 108.847 118.781 102.894 114.855C102.386 114.518 101.781 114.357 101.172 114.397C100.564 114.437 99.9853 114.676 99.5257 115.077C91.9609 121.623 82.2919 125.225 72.2884 125.225C62.2849 125.225 52.6159 121.623 45.0511 115.077C44.5888 114.668 44.0036 114.424 43.3875 114.384C42.7714 114.344 42.1594 114.509 41.6477 114.855C35.6857 118.777 30.5364 123.813 26.4822 129.686C18.6493 120.859 13.5332 109.958 11.7492 98.2924C9.96522 86.627 11.5894 74.6945 16.4263 63.9303C21.2633 53.1661 29.1071 44.0284 39.0142 37.6165C48.9213 31.2045 60.4699 27.7912 72.271 27.7872C75.6943 27.7866 79.1118 28.0706 82.488 28.6363C83.9378 28.865 85.4193 28.5121 86.6103 27.6542C87.8012 26.7963 88.6052 25.5028 88.8474 24.0552C89.0896 22.6076 88.7504 21.1229 87.9035 19.924C87.0567 18.7252 85.7708 17.9093 84.3254 17.6537C69.2048 15.1099 53.6669 17.4375 39.9553 24.3001C26.2437 31.1628 15.0679 42.2055 8.04136 55.8339C1.01485 69.4623 -1.4987 84.9711 0.863625 100.121C3.22595 115.271 10.3419 129.279 21.184 140.121C32.0262 150.963 46.0335 158.079 61.1836 160.441C76.3336 162.803 91.8424 160.29 105.471 153.263C119.099 146.237 130.142 135.061 137.005 121.349C143.867 107.638 146.195 92.0999 143.651 76.9793C143.407 75.5229 142.595 74.223 141.393 73.3655C140.191 72.508 138.697 72.1631 137.241 72.4067Z" fill="white"/>
<path d="M125.652 69.3934C106.681 69.3934 91.3027 54.0153 91.3027 35.0443C91.3027 16.0734 106.681 0.695312 125.652 0.695312C144.623 0.695312 160.001 16.0734 160.001 35.0443C160.001 54.0153 144.623 69.3934 125.652 69.3934ZM125.652 62.5236C132.94 62.5236 139.929 59.6284 145.083 54.4751C150.236 49.3217 153.131 42.3323 153.131 35.0443C153.131 27.7564 150.236 20.767 145.083 15.6136C139.929 10.4602 132.94 7.56512 125.652 7.56512C118.364 7.56512 111.374 10.4602 106.221 15.6136C101.068 20.767 98.1725 27.7564 98.1725 35.0443C98.1725 42.3323 101.068 49.3217 106.221 54.4751C111.374 59.6284 118.364 62.5236 125.652 62.5236Z" fill="white"/>
</svg>
