<svg width="160" height="162" viewBox="0 0 160 162" fill="none" xmlns="http://www.w3.org/2000/svg">
<path d="M107.258 31.175C107.258 30.8494 107.382 30.5371 107.604 30.3069C107.826 30.0766 108.126 29.9473 108.44 29.9473H111.985C112.299 29.9473 112.599 30.0766 112.821 30.3069C113.043 30.5371 113.167 30.8494 113.167 31.175V44.6752C113.167 45.0008 113.043 45.3131 112.821 45.5433C112.599 45.7736 112.299 45.9029 111.985 45.9029H108.44C108.126 45.9029 107.826 45.7736 107.604 45.5433C107.382 45.3131 107.258 45.0008 107.258 44.6752V31.175ZM121.092 30.1793C122.193 29.6575 124.886 30.1793 124.886 30.1793L132.717 32.0037C132.717 32.0037 134.676 32.6557 136.511 32.6557C138.346 32.6557 137.249 35.2658 136.021 36.1768C134.794 37.0878 133.9 37.0387 133.9 37.0387L127.577 36.9589C127.577 36.9589 133.085 38.0025 135.165 38.1326C136.218 38.1989 138.025 37.4279 140.046 36.5672C142.014 35.7275 144.183 34.803 146.055 34.4813C149.849 33.8306 150.461 37.3505 149.237 38.6544C148.013 39.9582 138.224 44.9122 136.511 45.5641C135.168 46.0748 133.546 45.9054 131.715 45.7139C131.208 45.6611 130.684 45.6058 130.148 45.5641C128.008 45.3959 126.375 44.8557 124.758 44.3216C123.023 43.7495 121.308 43.1835 119.012 43.0865C118.241 43.0546 116.438 43.154 115.531 43.2093V32.3291C117.098 31.7496 120.272 30.5673 121.092 30.1793Z" fill="white"/>
<path d="M72.271 52.8426C78.3277 52.8426 84.2484 54.6386 89.2844 58.0035C94.3203 61.3685 98.2454 66.1512 100.563 71.7468C102.881 77.3425 103.487 83.4998 102.306 89.4402C101.124 95.3805 98.2077 100.837 93.9249 105.12C89.6422 109.403 84.1856 112.319 78.2453 113.501C72.305 114.682 66.1477 114.076 60.552 111.758C54.9563 109.44 50.1736 105.515 46.8087 100.479C43.4437 95.4433 41.6477 89.5226 41.6477 83.4659C41.6477 75.3441 44.8741 67.5549 50.6171 61.8119C56.3601 56.069 64.1492 52.8426 72.271 52.8426ZM137.241 72.4067C135.785 72.6504 134.485 73.4626 133.627 74.6647C132.77 75.8668 132.425 77.3603 132.668 78.8167C133.234 82.193 133.518 85.6104 133.518 89.0337C133.531 104.027 128.02 118.499 118.039 129.686C113.989 123.817 108.847 118.781 102.894 114.855C102.386 114.518 101.781 114.357 101.172 114.397C100.564 114.437 99.9853 114.676 99.5257 115.077C91.9609 121.623 82.2919 125.225 72.2884 125.225C62.2849 125.225 52.6159 121.623 45.0511 115.077C44.5888 114.668 44.0036 114.424 43.3875 114.384C42.7714 114.344 42.1594 114.509 41.6477 114.855C35.6857 118.777 30.5364 123.813 26.4822 129.686C18.6493 120.859 13.5332 109.958 11.7492 98.2924C9.96522 86.627 11.5894 74.6945 16.4263 63.9303C21.2633 53.1661 29.1071 44.0284 39.0142 37.6165C48.9213 31.2045 60.4699 27.7912 72.271 27.7872C75.6943 27.7866 79.1118 28.0706 82.488 28.6363C83.9378 28.865 85.4193 28.5121 86.6103 27.6542C87.8012 26.7963 88.6052 25.5028 88.8474 24.0552C89.0896 22.6076 88.7504 21.1229 87.9035 19.924C87.0567 18.7252 85.7708 17.9093 84.3254 17.6537C69.2048 15.1099 53.6669 17.4375 39.9553 24.3001C26.2437 31.1628 15.0679 42.2055 8.04136 55.8339C1.01485 69.4623 -1.4987 84.9711 0.863625 100.121C3.22595 115.271 10.3419 129.279 21.184 140.121C32.0262 150.963 46.0335 158.079 61.1836 160.441C76.3336 162.803 91.8424 160.29 105.471 153.263C119.099 146.237 130.142 135.061 137.005 121.349C143.867 107.638 146.195 92.0999 143.651 76.9793C143.407 75.5229 142.595 74.223 141.393 73.3655C140.191 72.508 138.697 72.1631 137.241 72.4067Z" fill="white"/>
<path d="M125.652 69.3934C106.681 69.3934 91.3027 54.0153 91.3027 35.0443C91.3027 16.0734 106.681 0.695312 125.652 0.695312C144.623 0.695312 160.001 16.0734 160.001 35.0443C160.001 54.0153 144.623 69.3934 125.652 69.3934ZM125.652 62.5236C132.94 62.5236 139.929 59.6284 145.083 54.4751C150.236 49.3217 153.131 42.3323 153.131 35.0443C153.131 27.7564 150.236 20.767 145.083 15.6136C139.929 10.4602 132.94 7.56512 125.652 7.56512C118.364 7.56512 111.374 10.4602 106.221 15.6136C101.068 20.767 98.1725 27.7564 98.1725 35.0443C98.1725 42.3323 101.068 49.3217 106.221 54.4751C111.374 59.6284 118.364 62.5236 125.652 62.5236Z" fill="white"/>
<path d="M129.713 23.4474H136.214C136.37 23.4474 136.521 23.3851 136.631 23.2743C136.742 23.1635 136.805 23.0132 136.805 22.8565C136.805 22.6997 136.742 22.5494 136.631 22.4386C136.521 22.3278 136.37 22.2655 136.214 22.2655H131.486C130.702 22.2655 129.951 21.9542 129.397 21.4001C128.843 20.846 128.531 20.0944 128.531 19.3107C128.531 18.5271 128.843 17.7755 129.397 17.2214C129.951 16.6673 130.702 16.356 131.486 16.356H132.668V13.9922H135.032V16.356H137.986V18.7198H131.486C131.329 18.7198 131.179 18.7821 131.068 18.8929C130.957 19.0037 130.895 19.154 130.895 19.3107C130.895 19.4675 130.957 19.6178 131.068 19.7286C131.179 19.8394 131.329 19.9017 131.486 19.9017H136.214C136.997 19.9017 137.749 20.213 138.303 20.7671C138.857 21.3212 139.168 22.0728 139.168 22.8565C139.168 23.6401 138.857 24.3917 138.303 24.9458C137.749 25.4999 136.997 25.8112 136.214 25.8112H135.032V28.175H132.668V25.8112H129.713V23.4474Z" fill="white"/>
</svg>
