<svg enable-background="new 0 0 21.5 79.6" viewBox="0 0 21.5 79.6" xmlns="http://www.w3.org/2000/svg"><path d="m18.7 4.6c-.9 0-1.5-.7-1.6-1.5s.7-1.5 1.5-1.6 1.5.7 1.6 1.5c0 .9-.7 1.6-1.5 1.6zm0 8.2c-.9 0-1.5-.7-1.6-1.5s.7-1.5 1.5-1.6 1.5.7 1.6 1.5c0 .9-.7 1.6-1.5 1.6zm0 8.3c-.9 0-1.5-.7-1.6-1.5s.7-1.5 1.5-1.6 1.5.7 1.6 1.5c0 .9-.7 1.5-1.5 1.6zm0 8.2c-.9 0-1.5-.7-1.6-1.5s.7-1.5 1.5-1.6 1.5.7 1.6 1.5c0 .9-.7 1.6-1.5 1.6zm0 8.2c-.9 0-1.5-.7-1.6-1.5s.7-1.5 1.5-1.6 1.5.7 1.6 1.5c0 .9-.7 1.6-1.5 1.6zm-8-32.9c-.9 0-1.5-.7-1.5-1.5s.7-1.5 1.5-1.5c.9 0 1.5.7 1.5 1.5 0 .8-.6 1.5-1.5 1.5zm0 8.2c-.9 0-1.5-.7-1.5-1.5s.7-1.5 1.5-1.5c.9 0 1.5.7 1.5 1.5 0 .8-.6 1.5-1.5 1.5zm0 8.2c-.9 0-1.5-.7-1.5-1.5s.6-1.5 1.5-1.5 1.5.7 1.5 1.5c0 .9-.6 1.5-1.5 1.5 0 .1 0 .1 0 0zm0 8.3c-.9 0-1.5-.7-1.5-1.5s.7-1.5 1.5-1.5c.9 0 1.5.7 1.5 1.5 0 .8-.6 1.5-1.5 1.5zm0 8.2c-.9 0-1.5-.7-1.5-1.5s.7-1.5 1.5-1.5c.9 0 1.5.7 1.5 1.5 0 .8-.6 1.5-1.5 1.5zm-8-32.9c-.9 0-1.5-.7-1.5-1.5s.7-1.5 1.5-1.5c.9 0 1.5.7 1.5 1.5.1.8-.6 1.5-1.5 1.5zm0 8.2c-.9 0-1.5-.7-1.5-1.5s.7-1.5 1.5-1.5c.9 0 1.5.7 1.5 1.5.1.8-.6 1.5-1.5 1.5zm0 8.2c-.9 0-1.5-.7-1.5-1.5s.7-1.5 1.5-1.5c.9 0 1.5.7 1.5 1.5.1.9-.6 1.5-1.5 1.5 0 .1 0 .1 0 0zm0 8.3c-.9 0-1.5-.7-1.5-1.5s.7-1.5 1.5-1.5c.9 0 1.5.7 1.5 1.5.1.8-.6 1.5-1.5 1.5zm0 8.2c-.9 0-1.5-.7-1.5-1.5s.7-1.5 1.5-1.5c.9 0 1.5.7 1.5 1.5.1.8-.6 1.5-1.5 1.5zm16 8.1c-.9 0-1.5-.7-1.6-1.5s.7-1.5 1.5-1.6 1.5.7 1.6 1.5c0 .9-.7 1.6-1.5 1.6zm0 8.2c-.9 0-1.5-.7-1.6-1.5s.7-1.5 1.5-1.6 1.5.7 1.6 1.5c0 1-.7 1.6-1.5 1.6 0 .1 0 .1 0 0zm0 8.3c-.9 0-1.5-.7-1.6-1.5s.7-1.5 1.5-1.6 1.5.7 1.6 1.5c0 .9-.7 1.6-1.5 1.6zm0 8.2c-.9 0-1.5-.7-1.6-1.5s.7-1.5 1.5-1.6 1.5.7 1.6 1.5c0 .9-.7 1.6-1.5 1.6zm0 8.2c-.9 0-1.5-.7-1.6-1.5s.7-1.5 1.5-1.6 1.5.7 1.6 1.5c0 .9-.7 1.6-1.5 1.6zm-8-32.9c-.9 0-1.5-.7-1.5-1.5s.7-1.5 1.5-1.5c.9 0 1.5.7 1.5 1.5 0 .8-.6 1.5-1.5 1.5zm0 8.2c-.9 0-1.5-.7-1.5-1.5s.7-1.5 1.5-1.5c.9 0 1.5.7 1.5 1.5 0 .9-.6 1.5-1.5 1.5 0 .1 0 .1 0 0zm0 8.3c-.9 0-1.5-.7-1.5-1.5s.6-1.6 1.5-1.6 1.5.7 1.5 1.5c0 .9-.6 1.6-1.5 1.6zm0 8.2c-.9 0-1.5-.7-1.5-1.5s.7-1.5 1.5-1.5c.9 0 1.5.7 1.5 1.5 0 .8-.6 1.5-1.5 1.5zm0 8.2c-.9 0-1.5-.7-1.5-1.5s.7-1.5 1.5-1.5c.9 0 1.5.7 1.5 1.5 0 .8-.6 1.5-1.5 1.5zm-8-32.9c-.9 0-1.5-.7-1.5-1.5s.7-1.5 1.5-1.5c.9 0 1.5.7 1.5 1.5.1.8-.6 1.5-1.5 1.5zm0 8.2c-.9 0-1.5-.7-1.5-1.5s.7-1.5 1.5-1.5c.9 0 1.5.7 1.5 1.5.1.9-.6 1.5-1.5 1.5 0 .1 0 .1 0 0zm0 8.3c-.9 0-1.5-.7-1.5-1.5s.7-1.6 1.5-1.6c.9 0 1.5.7 1.5 1.5.1.9-.6 1.6-1.5 1.6zm0 8.2c-.9 0-1.5-.7-1.5-1.5s.7-1.5 1.5-1.5c.9 0 1.5.7 1.5 1.5.1.8-.6 1.5-1.5 1.5zm0 8.2c-.9 0-1.5-.7-1.5-1.5s.7-1.5 1.5-1.5c.9 0 1.5.7 1.5 1.5.1.8-.6 1.5-1.5 1.5z" fill="#3e80ff"/></svg>