<svg enable-background="new 0 0 104 17" viewBox="0 0 104 17" xmlns="http://www.w3.org/2000/svg" xmlns:xlink="http://www.w3.org/1999/xlink"><linearGradient id="a" gradientTransform="matrix(1 0 0 -1 0 18)" gradientUnits="userSpaceOnUse" x1=".516" x2="103.6213" y1="9.612" y2="9.612"><stop offset="0" stop-color="#3e80ff"/><stop offset="1" stop-color="#24126a"/></linearGradient><path d="m1.2 11.9c6.9 4.2 15.3 5.4 23 2.7 10-3.5 17-10.6 28.4-8.4 8.9 1.7 16.9 5.9 26.1 5.8 8.8-.2 17.3-3.2 24.3-8.4 1.5-1.1 0-3.7-1.5-2.6-7.5 5.6-16.6 8.5-25.9 7.9-8.8-.6-16.7-5.1-25.4-6.1-7.3-.9-13.1 1.8-19.3 5.2-9.3 5.1-18.6 7.1-28.2 1.3-1.6-1-3.1 1.6-1.5 2.6z" fill="url(#a)"/></svg>