<svg enable-background="new 0 0 114.3 21.1" viewBox="0 0 114.3 21.1" xmlns="http://www.w3.org/2000/svg"><g fill="#fff"><path d="m10.8.3c-5.6 0-10.1 4.6-10.1 10.3 0 5.6 4.5 10.2 10.1 10.2s10.1-4.6 10.1-10.2c0-5.7-4.5-10.3-10.1-10.3zm5.3.5c3.4 1.9 5.8 5.6 5.8 9.8s-2.3 7.9-5.8 9.8c4.3-1.3 7.3-5.3 7.3-9.8-.1-4.6-3-8.6-7.3-9.8zm-5.1 1.9c.5 0 1 .5 1 1v.3c1 .2 1.9.5 2.7.9.4.2.7.6.7 1.2 0 .7-.6 1.3-1.3 1.3-.2 0-.5-.1-.7-.2-.5-.3-1.1-.5-1.6-.7v2.9c2.9.8 4.1 2 4.1 4.2 0 2.1-1.7 3.5-4.1 3.7v1c0 .6-.4 1-1 1-.5 0-1-.5-1-1v-1c-1.3-.2-2.6-.7-3.7-1.4-.4-.3-.6-.6-.6-1.2 0-.7.6-1.3 1.3-1.3.2 0 .5.1.7.3.8.5 1.5.9 2.4 1.1v-3c-2.7-.8-4.1-1.8-4-4.1 0-2.1 1.6-3.5 4-3.7v-.2c.1-.6.5-1.1 1.1-1.1zm-1 3.6c-.9.2-1.3.6-1.3 1.2s.3 1 1.3 1.4zm1.8 6v2.7c.9-.1 1.4-.5 1.4-1.2-.1-.7-.4-1.2-1.4-1.5z"/><path d="m34.5 15.5c-.8 0-1.6-.1-2.3-.4s-1.4-.7-1.9-1.2c-.6-.5-1-1.1-1.3-1.8s-.5-1.4-.5-2.2.2-1.5.5-2.2.7-1.3 1.3-1.8 1.2-.9 1.9-1.2 1.5-.4 2.3-.4c.7 0 1.3.1 1.9.3.6 0 1.2.2 1.6.5l-.9 1.9c-.3-.2-.7-.4-1.1-.6-.4-.1-.9-.2-1.3-.2-.5 0-1.1.1-1.5.3-.5.2-.9.4-1.2.8s-.7.7-.9 1.1-.3.9-.3 1.4.1 1 .3 1.4.5.8.8 1.1.8.6 1.2.8c.5.2 1 .3 1.5.3s.9-.1 1.3-.2.8-.3 1.1-.6l.9 1.8c-.4.3-.9.6-1.5.7-.6.3-1.2.4-1.9.4z"/><path d="m39.5 15.3v-6.8h2.1v1c.3-.4.6-.7.9-.9.4-.2.8-.3 1.2-.3.2 0 .5 0 .7.1.3.1.5.2.6.3l-.9 1.7c-.2-.1-.3-.2-.5-.2-.2-.1-.4-.1-.6-.1-.3 0-.5.1-.8.2-.2.1-.4.3-.6.5-.1.2-.2.5-.2.7v3.8z"/><path d="m45.9 18.8 2.2-4.3-3.3-6h2.4l2.1 4 1.8-4h2.4l-5.2 10.3z"/><path d="m54.6 18.8v-10.3h2.1v.8c.3-.3.6-.6 1-.8s.9-.3 1.3-.3c.7 0 1.2.2 1.8.5.5.3.9.7 1.2 1.3.3.5.4 1.2.4 1.9s-.1 1.3-.4 1.9-.7 1-1.2 1.3-1.1.5-1.7.5c-.5 0-.9-.1-1.3-.3s-.8-.5-1.1-.8v4.4h-2.1zm3.9-5c.4 0 .7-.1.9-.2.3-.2.5-.4.6-.7s.2-.6.2-1-.1-.7-.2-1c-.2-.3-.4-.5-.6-.7s-.6-.2-.9-.2c-.4 0-.7.1-.9.2-.3.2-.5.4-.7.7s-.2.6-.2 1 .1.7.2 1c.2.3.4.5.7.7.2.1.5.2.9.2z"/><path d="m66.6 15.5c-.7 0-1.2-.2-1.6-.7-.4-.4-.6-1-.6-1.8v-3h-.9v-1.5h.9v-2.6h2.1v2.6h1.5v1.5h-1.5v2.9c0 .3.1.5.2.6s.3.2.4.2c.2 0 .4-.1.6-.2l.5 1.6c-.2.1-.5.2-.8.3-.2.1-.5.1-.8.1z"/><path d="m73.4 15.5c-.8 0-1.4-.2-2-.5s-1.1-.7-1.4-1.3c-.4-.5-.5-1.2-.5-1.9s.2-1.3.5-1.9c.4-.5.8-1 1.4-1.3s1.3-.5 2-.5c.8 0 1.4.2 2 .5s1.1.7 1.4 1.3c.4.5.5 1.2.5 1.9s-.2 1.3-.5 1.9c-.4.5-.8 1-1.4 1.3-.5.4-1.2.5-2 .5zm0-1.7c.3 0 .7-.1.9-.2.3-.2.5-.4.7-.7s.2-.6.2-1-.1-.7-.2-1c-.2-.3-.4-.5-.7-.7s-.6-.2-.9-.2c-.4 0-.7.1-1 .2s-.5.4-.7.7-.2.6-.2 1 .1.7.2 1c.2.3.4.5.7.7.4.1.7.2 1 .2z"/><path d="m79.5 15.3v-11h2.2v9.1h4v1.9z"/><path d="m90 15.5c-.6 0-1.2-.2-1.7-.5s-.9-.7-1.2-1.3-.5-1.2-.5-1.9.1-1.3.4-1.8.7-1 1.2-1.3 1.1-.5 1.8-.5c.5 0 .9.1 1.4.3s.8.4 1 .8v-.8h2.1v6.8h-2.1v-.9c-.3.4-.7.6-1.1.8s-.8.3-1.3.3zm.6-1.7c.4 0 .7-.1.9-.2.3-.2.5-.4.6-.7.2-.3.2-.6.2-1s-.1-.7-.2-1c-.2-.3-.4-.5-.6-.7-.2-.1-.5-.2-.9-.2s-.7.1-.9.2c-.3.2-.5.4-.7.7s-.2.6-.2 1 .1.7.2 1c.2.3.4.5.7.7.3.1.6.2.9.2z"/><path d="m96.9 15.3v-6.8h2.1v.8c.3-.3.6-.5 1-.7s.8-.3 1.3-.3 1 .1 1.4.3.7.5.9 1c.2.4.3.9.3 1.4v4.3h-2.1v-3.9c0-.5-.1-.9-.4-1.1-.3-.3-.6-.4-1.1-.4-.3 0-.6.1-.8.2s-.4.3-.5.5-.2.5-.2.7v4.1h-1.9z"/><path d="m109 15.5c-.6 0-1.2-.2-1.7-.5s-.9-.7-1.2-1.3c-.3-.5-.5-1.2-.5-1.9s.1-1.3.4-1.9c.3-.5.7-1 1.2-1.3s1.1-.5 1.8-.5c.5 0 .9.1 1.3.3s.8.4 1 .8v-5.4h2.1v11.5h-2.1v-.9c-.3.4-.7.6-1.1.8-.3.2-.7.3-1.2.3zm.6-1.7c.4 0 .7-.1 1-.2.3-.2.5-.4.7-.7s.2-.6.2-1-.1-.7-.2-1c-.2-.3-.4-.5-.7-.7s-.6-.2-.9-.2c-.4 0-.7.1-.9.2-.3.2-.5.4-.7.7s-.2.6-.2 1 .1.7.2 1 .4.5.6.7c.3.1.6.2.9.2z"/></g></svg>